# xmcd
#
# Track frame offsets:
# 150
# 16243
# 37000
# 56655
# 74368
# 89673
# 109708
# 131158
# 150359
# 172062
# 192477
# 212202
# 232142
# 250937
# 271042
# 295149
# 314537
#
# Disc length: 4492 seconds
#
#
# Revision: 0
# Processed by: cddbd v1.5.1PL2 Copyright (c) Steve Scherf et al.
# Submitted via: FreeRIP 2.945 
#
DISCID=02118a11
DTITLE=Whitney Houston - Whitney Houston CD2
DYEAR=1998
DGENRE=Blues
TTITLE0=Fine
TTITLE1=Didn't We Almost Hare It All
TTITLE2=I Learned From The Best
TTITLE3=All The Man That I Need
TTITLE4=Exhale (Shoop Shoop)
TTITLE5=Count On Me (Duet With Cece Winans)
TTITLE6=One Moment In Time
TTITLE7=My Heart Is Calling
TTITLE8=I Wanna Dance With Somebody
TTITLE9=So Emotional
TTITLE10=You'll Never Stand Alone
TTITLE11=Run To You
TTITLE12=You Give Good Love
TTITLE13=All At Ouce
TTITLE14=Love Will Save The Day
TTITLE15=If You Say My Eyes Are Beauiful (Duet With Jermaine Jackson)
TTITLE16=Same Script, Different Cast (Duet With Deborah Cox)
EXTD=CD 2
EXTT0=
EXTT1=
EXTT2=
EXTT3=
EXTT4=
EXTT5=
EXTT6=
EXTT7=
EXTT8=
EXTT9=
EXTT10=
EXTT11=
EXTT12=
EXTT13=
EXTT14=
EXTT15=
EXTT16=
PLAYORDER=
